<svg width="121" height="28" viewBox="0 0 121 28" fill="none" xmlns="http://www.w3.org/2000/svg">
<g clip-path="url(#clip0_234_551)">
<path d="M15.3705 0.0390625L16.85 0.154158L16.8154 0.594948L15.867 0.521483L15.825 1.06023L16.6351 1.1239L16.6006 1.56469L15.7904 1.50102L15.7188 2.40464L15.1877 2.36301L15.373 0.0390625H15.3705Z" fill="#002368"/>
<path d="M17.3812 1.49878L17.7171 0.291504L18.2308 0.431088L17.8801 1.68979C17.7566 2.13058 17.8554 2.31914 18.1098 2.39016C18.3642 2.45872 18.5544 2.34853 18.6754 1.90774L19.0261 0.649034L19.5201 0.78372L19.1842 1.991C18.9743 2.74524 18.5741 2.99012 17.9863 2.8285C17.3984 2.66932 17.1712 2.25302 17.3812 1.49878Z" fill="#002368"/>
<path d="M20.5104 1.17285L20.9945 1.42263V2.73276L20.9648 3.29354L20.9772 3.30089C21.071 3.0707 21.1847 2.76215 21.3131 2.51726L21.6984 1.78751L22.1479 2.02015L21.0587 4.08697L20.5746 3.83719V2.52461L20.6042 1.96627L20.5919 1.95893C20.4931 2.19891 20.3869 2.49522 20.2584 2.73766L19.8731 3.47231L19.4236 3.23967L20.5128 1.17285H20.5104Z" fill="#002368"/>
<path d="M22.19 3.44796C22.6865 2.85044 23.3731 2.8284 23.8597 3.22511C24.124 3.44061 24.2178 3.70509 24.2401 3.92548L23.8078 4.01119C23.7856 3.85446 23.7387 3.71488 23.5831 3.58754C23.3039 3.3598 22.9236 3.41612 22.6247 3.7761C22.3184 4.14588 22.3086 4.50096 22.6519 4.77768C22.7235 4.83645 22.8149 4.88053 22.889 4.88053L23.1459 4.56952L22.8445 4.32464L23.1212 3.9916L23.7881 4.53279L23.0989 5.36295C22.8717 5.38254 22.5728 5.29928 22.3184 5.09358C21.817 4.68707 21.6911 4.05282 22.1925 3.44551L22.19 3.44796Z" fill="#002368"/>
<path d="M25.1638 4.46387L25.5219 4.9169L24.9341 5.85236C24.8526 5.9748 24.7612 6.09724 24.6747 6.22213L24.6846 6.23438C24.8279 6.18295 24.9711 6.12173 25.1094 6.0752L26.1616 5.72747L26.5198 6.1805L24.6648 7.61552L24.366 7.2384L25.0452 6.7119C25.2255 6.57232 25.5219 6.396 25.717 6.27846L25.7072 6.26621L25.1489 6.45477L24.2351 6.74373L24.0523 6.51354L24.5562 5.70298L24.8797 5.21566L24.8698 5.20342C24.7068 5.36259 24.4623 5.60503 24.282 5.74461L23.6028 6.27111L23.3088 5.89889L25.1613 4.46387H25.1638Z" fill="#002368"/>
<path d="M25.927 7.64028L27.0706 7.10889L27.2953 7.58641L26.1023 8.13985C25.6849 8.33331 25.6034 8.53166 25.7146 8.76675C25.8257 9.00429 26.0357 9.0753 26.4531 8.88184L27.6461 8.32841L27.8634 8.78879L26.7198 9.32019C26.0035 9.65323 25.5565 9.50875 25.2996 8.96266C25.0427 8.41657 25.2132 7.97333 25.927 7.64273V7.64028Z" fill="#002368"/>
<path d="M3.03845 18.954C-0.0341624 12.3103 2.83591 4.38587 9.47017 1.20483C10.7471 0.592619 12.0686 0.195907 13.3974 0C11.661 0.0881581 9.91476 0.494665 8.23767 1.25625C1.17858 4.46423 -1.95578 12.805 1.27244 19.8086C4.51794 26.8515 12.9108 29.9493 20.0069 26.7242C22.136 25.7569 23.907 24.3292 25.2531 22.6175C24.0922 23.8296 22.6844 24.8483 21.0567 25.5879C14.2322 28.6881 6.16539 25.7177 3.03598 18.954H3.03845Z" fill="#002368"/>
<path d="M9.61548 24.6547C17.9614 28.7981 22.6543 20.3912 27.9795 20.0362C23.9362 17.1833 16.1979 26.1289 9.61548 24.6547Z" fill="#2BABE4"/>
<path d="M21.076 16.2457C20.0979 16.6473 19.1001 17.1175 18.1022 17.5975C16.8895 18.1803 15.6743 18.7778 14.4788 19.2749C13.2908 19.7696 12.125 20.1663 11.0036 20.3573C7.8816 20.8863 5.12021 19.8112 3.25293 14.7568C6.66639 34.159 23.5534 15.4082 29.6393 16.7575C27.2904 14.3871 24.2721 14.938 21.076 16.2457Z" fill="#002368"/>
<path d="M17.759 14.2301C16.8451 14.4774 15.9214 14.9157 14.9828 15.3908C14.4517 15.6602 13.9158 15.9418 13.3724 16.2063C12.6363 16.5687 11.8879 16.8993 11.1272 17.1344C9.9441 17.5017 8.72889 17.629 7.47663 17.2617C6.42443 16.9507 5.34507 16.2895 4.23606 15.119C4.0113 14.8839 3.78653 14.6268 3.56177 14.3476C3.71984 14.6561 3.88039 14.9476 4.04094 15.2218C4.73993 16.412 5.46115 17.2911 6.20461 17.918C7.63717 19.1302 9.1389 19.4093 10.6653 19.1914C11.7027 19.042 12.7524 18.6624 13.7947 18.1923C14.7037 17.7809 15.6101 17.3033 16.5043 16.8454C17.6972 16.2356 18.8655 15.6651 19.9844 15.3516C20.7007 15.1533 21.3972 15.0578 22.069 15.1263C20.6513 13.9239 19.2212 13.8309 17.7615 14.2276L17.759 14.2301Z" fill="#2BABE4"/>
<path d="M11.7594 12.1338C11.9595 12.1779 12.1249 11.9134 11.9619 11.7885C11.1715 11.1812 9.92917 10.1944 8.57317 9.02871C5.89575 6.72925 7.77785 5.49748 7.77785 5.49748C7.77785 5.49748 5.89822 5.10322 4.78922 6.57987C4.26312 7.28269 3.99142 8.46058 4.70524 9.45235C5.5796 10.6645 10.0749 11.7592 11.7569 12.1338H11.7594Z" fill="#002368"/>
<path d="M12.3548 11.6297C12.4165 11.8256 12.7302 11.8354 12.7574 11.6297C12.8932 10.6477 13.1353 9.08538 13.4736 7.33936C14.143 3.88895 16.1609 4.89297 16.1609 4.89297C16.1609 4.89297 15.5657 3.08083 13.7231 2.86778C12.8463 2.76738 11.6805 3.12246 11.1716 4.23178C10.5517 5.58844 11.841 9.99635 12.3548 11.6273V11.6297Z" fill="#002368"/>
<path d="M13.0908 11.8893C12.95 12.0387 13.0982 12.313 13.2909 12.2371C14.2171 11.8624 15.7016 11.2894 17.3959 10.7066C20.7427 9.55805 20.8761 11.7889 20.8761 11.7889C20.8761 11.7889 22.1605 10.3735 21.4244 8.68381C21.0737 7.88059 20.1796 7.05778 18.9594 7.17533C17.4651 7.31981 14.2591 10.6331 13.0908 11.8893Z" fill="#002368"/>
<path d="M7.7655 16.2676C7.93593 16.3191 8.10635 16.3582 8.28172 16.3876C9.68712 15.271 11.2086 13.689 11.9372 12.9029C12.078 12.7536 11.9372 12.5038 11.7372 12.5552C10.3911 12.9029 7.16284 13.8163 4.98682 14.4702C5.9007 15.3958 6.8121 15.9836 7.76797 16.2652L7.7655 16.2676Z" fill="#002368"/>
<path d="M13.2957 15.1903C13.0759 14.3626 12.8511 13.6255 12.698 13.1381C12.6362 12.9422 12.3596 12.9422 12.2954 13.1381C12.0879 13.7699 11.7545 14.8327 11.4309 16.0082C11.9694 15.8172 12.5597 15.5576 13.2932 15.1927L13.2957 15.1903Z" fill="#002368"/>
<path d="M17.2377 13.5884C15.894 13.1672 14.0613 12.7754 13.2833 12.6016C13.0832 12.5575 12.9424 12.795 13.0808 12.9468C13.4266 13.3264 13.9576 13.8994 14.58 14.5386C14.6418 14.5068 14.706 14.4749 14.7677 14.4431C15.5013 14.0733 16.3065 13.7648 17.2401 13.5884H17.2377Z" fill="#002368"/>
<path d="M54.3116 15.3724H45.6866V17.1576H49.7768C51.9553 17.1576 53.4447 18.7665 53.4447 20.6398C53.4447 22.5132 51.9553 24.1441 49.7768 24.1441H38.5731C36.3724 24.1441 34.9275 22.5352 34.9275 20.6398C34.9275 18.7444 36.3724 17.1576 38.5731 17.1576H42.6411V15.3724H34.0383V12.926H54.3116V15.3724ZM53.4891 9.26745V11.5375H34.8608V9.26745H38.3509L37.9285 6.71086H40.9295L41.3296 9.26745H46.9537L47.3538 6.71086H50.3548L49.9102 9.26745H53.4891ZM53.2668 4V6.27007H35.0831V4H53.2668ZM49.021 19.4717H39.2845C38.462 19.4717 37.884 19.9787 37.884 20.5958C37.884 21.257 38.462 21.7859 39.2845 21.7859H49.021C49.8435 21.7859 50.4215 21.257 50.4215 20.5958C50.4215 19.9787 49.8435 19.4717 49.021 19.4717Z" fill="#002368"/>
<path d="M64.8262 24.2986V18.3479H56.2678V15.6591H76.5411V18.3479H67.9828V24.2986H64.8262ZM57.446 13.389V4.26465H75.3629V13.389H57.446ZM60.5137 10.7884H72.2953V6.88735H60.5137V10.7884Z" fill="#002368"/>
<path d="M78.4998 23.5933V20.7943H98.773V23.5933H78.4998ZM93.1712 18.8548L94.3049 7.01959H79.5668V4.26465H97.706L96.3278 18.8548H93.1712Z" fill="#002368"/>
<path d="M100.729 15.5928V13.2346H121.003V15.5928H112.377V17.6866H109.332V15.5928H100.729ZM101.907 12.1987V7.04146H116.734V6.07172H101.907V4H119.824V9.04705H104.997V10.0829H119.936V12.1987H101.907ZM101.907 24.078V16.7829H104.975V18.3477H116.757V16.7829H119.824V24.078H116.757V23.505L101.907 24.078ZM104.975 21.7639L116.757 21.3672V20.5076H104.975V21.7639Z" fill="#002368"/>
</g>
<defs>
<clipPath id="clip0_234_551">
<rect width="121" height="28" fill="white"/>
</clipPath>
</defs>
</svg>
