<svg width="85" height="20" viewBox="0 0 85 20" fill="none" xmlns="http://www.w3.org/2000/svg">
<g opacity="0.5" clip-path="url(#clip0_238_1001)">
<path d="M10.7973 0.0280762L11.8367 0.110287L11.8124 0.425138L11.1461 0.372663L11.1166 0.75748L11.6857 0.802958L11.6614 1.11781L11.0923 1.07233L11.042 1.71777L10.6689 1.68804L10.7991 0.0280762H10.7973Z" fill="white"/>
<path d="M12.2096 1.07059L12.4456 0.208252L12.8065 0.307955L12.5601 1.20703C12.4734 1.52188 12.5428 1.65656 12.7215 1.70729C12.9002 1.75627 13.0338 1.67755 13.1188 1.3627L13.3652 0.463631L13.7122 0.559835L13.4763 1.42218C13.3288 1.96092 13.0477 2.13584 12.6347 2.02039C12.2218 1.9067 12.0622 1.60934 12.2096 1.07059Z" fill="white"/>
<path d="M14.408 0.837891L14.748 1.01631V1.95211L14.7272 2.35267L14.7359 2.35792C14.8018 2.1935 14.8816 1.9731 14.9719 1.79818L15.2425 1.27693L15.5583 1.4431L14.7932 2.9194L14.4531 2.74099V1.80343L14.4739 1.40462L14.4652 1.39937C14.3958 1.57079 14.3212 1.78244 14.231 1.95561L13.9603 2.48036L13.6445 2.31419L14.4097 0.837891H14.408Z" fill="white"/>
<path d="M15.588 2.463C15.9368 2.0362 16.4191 2.02046 16.761 2.30383C16.9466 2.45775 17.0125 2.64666 17.0282 2.80409L16.7245 2.86531C16.7089 2.75336 16.6759 2.65366 16.5666 2.5627C16.3706 2.40003 16.1034 2.44026 15.8934 2.69739C15.6783 2.96151 15.6713 3.21514 15.9125 3.4128C15.9628 3.45478 16.027 3.48627 16.0791 3.48627L16.2595 3.26412L16.0478 3.0892L16.2422 2.85132L16.7106 3.23788L16.2265 3.83085C16.0669 3.84484 15.857 3.78537 15.6783 3.63844C15.326 3.34808 15.2375 2.89505 15.5898 2.46125L15.588 2.463Z" fill="white"/>
<path d="M17.6771 3.18872L17.9287 3.51232L17.5157 4.1805C17.4584 4.26796 17.3943 4.35542 17.3335 4.44462L17.3405 4.45337C17.4411 4.41664 17.5417 4.37291 17.6389 4.33967L18.378 4.09129L18.6296 4.41489L17.3266 5.4399L17.1166 5.17053L17.5938 4.79446C17.7204 4.69476 17.9287 4.56882 18.0657 4.48486L18.0588 4.47611L17.6667 4.6108L17.0247 4.8172L16.8963 4.65278L17.2502 4.0738L17.4775 3.72572L17.4706 3.71697C17.3561 3.83067 17.1843 4.00383 17.0576 4.10354L16.5805 4.47961L16.374 4.21373L17.6753 3.18872H17.6771Z" fill="white"/>
<path d="M18.2129 5.45745L19.0162 5.07788L19.1741 5.41897L18.336 5.81428C18.0428 5.95247 17.9856 6.09415 18.0636 6.26207C18.1417 6.43174 18.2892 6.48246 18.5824 6.34428L19.4205 5.94897L19.5732 6.27781L18.7698 6.65738C18.2666 6.89527 17.9526 6.79207 17.7721 6.402C17.5917 6.01194 17.7114 5.69534 18.2129 5.4592V5.45745Z" fill="white"/>
<path d="M2.13425 13.5386C-0.0241961 8.79307 1.99197 3.13276 6.65241 0.860591C7.54944 0.423299 8.47771 0.139934 9.41119 0C8.19142 0.0629701 6.96472 0.353332 5.7866 0.897324C0.82773 3.18874 -1.37409 9.14641 0.893663 14.149C3.17356 19.1796 9.06938 21.3923 14.0543 19.0887C15.5499 18.3978 16.794 17.378 17.7396 16.1553C16.9241 17.0212 15.9351 17.7488 14.7917 18.2771C9.99765 20.4915 4.33086 18.3698 2.13251 13.5386H2.13425Z" fill="white"/>
<path d="M6.75439 17.6105C12.6172 20.5701 15.9139 14.5652 19.6547 14.3116C16.8144 12.2738 11.3784 18.6635 6.75439 17.6105Z" fill="#2BABE4"/>
<path d="M14.805 11.604C14.1179 11.8909 13.417 12.2267 12.716 12.5696C11.8641 12.9859 11.0104 13.4127 10.1706 13.7677C9.33605 14.1211 8.51709 14.4044 7.72936 14.5409C5.53621 14.9187 3.59639 14.1508 2.28467 10.5405C4.68255 24.3992 16.5453 11.0058 20.8206 11.9696C19.1705 10.2764 17.0502 10.67 14.805 11.604Z" fill="white"/>
<path d="M12.4752 10.1643C11.8332 10.341 11.1843 10.6541 10.525 10.9934C10.1519 11.1858 9.77542 11.387 9.3937 11.5759C8.87665 11.8348 8.35092 12.0709 7.81651 12.2388C6.98541 12.5012 6.13175 12.5922 5.25206 12.3298C4.51291 12.1076 3.75468 11.6354 2.97563 10.7993C2.81774 10.6313 2.65985 10.4477 2.50195 10.2483C2.613 10.4687 2.72578 10.6768 2.83856 10.8727C3.32959 11.7228 3.83623 12.3508 4.35849 12.7986C5.36484 13.6644 6.41977 13.8638 7.49205 13.7081C8.22079 13.6014 8.9582 13.3303 9.6904 12.9945C10.3289 12.7006 10.9657 12.3595 11.5938 12.0324C12.4318 11.5969 13.2525 11.1893 14.0385 10.9654C14.5417 10.8238 15.031 10.7555 15.5029 10.8045C14.507 9.94568 13.5024 9.87921 12.4769 10.1626L12.4752 10.1643Z" fill="#2BABE4"/>
<path d="M8.26054 8.6672C8.40108 8.69868 8.51733 8.50977 8.40281 8.42056C7.84759 7.98677 6.97484 7.28185 6.02228 6.44925C4.14145 4.80678 5.46358 3.92695 5.46358 3.92695C5.46358 3.92695 4.14318 3.64533 3.36413 4.70008C2.99456 5.20209 2.8037 6.04344 3.30514 6.75186C3.91936 7.6177 7.07721 8.39957 8.2588 8.6672H8.26054Z" fill="white"/>
<path d="M8.6785 8.30673C8.72188 8.44667 8.94223 8.45366 8.96132 8.30673C9.05675 7.60532 9.22679 6.48935 9.46449 5.24219C9.9347 2.77761 11.3523 3.49477 11.3523 3.49477C11.3523 3.49477 10.9341 2.20038 9.63974 2.04821C9.02378 1.97649 8.20482 2.23012 7.84739 3.02249C7.41189 3.99153 8.3176 7.14004 8.6785 8.30498V8.30673Z" fill="white"/>
<path d="M9.19585 8.49214C9.09695 8.59884 9.20105 8.79475 9.33639 8.74052C9.98704 8.4729 11.0298 8.06359 12.2201 7.64729C14.5711 6.82693 14.6648 8.42042 14.6648 8.42042C14.6648 8.42042 15.5671 7.40941 15.05 6.20248C14.8036 5.62875 14.1755 5.04103 13.3184 5.12499C12.2687 5.22819 10.0165 7.59482 9.19585 8.49214Z" fill="white"/>
<path d="M5.4549 11.6198C5.57462 11.6565 5.69434 11.6845 5.81753 11.7055C6.80479 10.9079 7.8736 9.7779 8.38545 9.21642C8.48435 9.10972 8.38545 8.9313 8.24491 8.96803C7.29929 9.21642 5.03154 9.86886 3.50293 10.3359C4.14491 10.9971 4.78516 11.4169 5.45663 11.618L5.4549 11.6198Z" fill="white"/>
<path d="M9.33977 10.8501C9.18535 10.2588 9.02746 9.73233 8.91988 9.38425C8.87651 9.24431 8.68218 9.24431 8.63706 9.38425C8.49132 9.83553 8.25708 10.5947 8.02979 11.4343C8.40803 11.2978 8.82272 11.1124 9.33804 10.8518L9.33977 10.8501Z" fill="white"/>
<path d="M12.1089 9.70606C11.1651 9.40521 9.87763 9.12534 9.33107 9.00115C9.19053 8.96966 9.09163 9.13933 9.1888 9.24778C9.43171 9.5189 9.80475 9.92821 10.242 10.3847C10.2854 10.362 10.3305 10.3393 10.3739 10.3165C10.8892 10.0524 11.4548 9.832 12.1107 9.70606H12.1089Z" fill="white"/>
<path d="M38.1527 10.9801H32.0938V12.2552H34.9671C36.4974 12.2552 37.5437 13.4044 37.5437 14.7425C37.5437 16.0807 36.4974 17.2456 34.9671 17.2456H27.0967C25.5508 17.2456 24.5358 16.0964 24.5358 14.7425C24.5358 13.3887 25.5508 12.2552 27.0967 12.2552H29.9544V10.9801H23.9111V9.23266H38.1527V10.9801ZM37.5749 6.6194V8.24088H24.4889V6.6194H26.9406L26.6439 4.79326H28.752L29.0331 6.6194H32.9839L33.265 4.79326H35.3731L35.0608 6.6194H37.5749ZM37.4188 2.85693V4.47841H24.6451V2.85693H37.4188ZM34.4361 13.9082H27.5965C27.0187 13.9082 26.6127 14.2703 26.6127 14.7111C26.6127 15.1833 27.0187 15.5611 27.5965 15.5611H34.4361C35.0139 15.5611 35.4199 15.1833 35.4199 14.7111C35.4199 14.2703 35.0139 13.9082 34.4361 13.9082Z" fill="white"/>
<path d="M45.5389 17.3559V13.1054H39.5269V11.1848H53.7684V13.1054H47.7564V17.3559H45.5389ZM40.3545 9.5633V3.0459H52.9408V9.5633H40.3545ZM42.5095 7.70569H50.7858V4.91926H42.5095V7.70569Z" fill="white"/>
<path d="M55.1445 16.8521V14.8528H69.3861V16.8521H55.1445ZM65.4509 13.4674L66.2473 5.01371H55.8941V3.0459H68.6365L67.6684 13.4674H65.4509Z" fill="white"/>
<path d="M70.7603 11.1375V9.45305H85.0018V11.1375H78.9429V12.633H76.8035V11.1375H70.7603ZM71.5879 8.71315V5.0294H82.0036V4.33673H71.5879V2.85693H84.1742V6.46197H73.7585V7.20187H84.2523V8.71315H71.5879ZM71.5879 17.1984V11.9876H73.7429V13.1053H82.0192V11.9876H84.1742V17.1984H82.0192V16.7891L71.5879 17.1984ZM73.7429 15.5454L82.0192 15.262V14.6481H73.7429V15.5454Z" fill="white"/>
</g>
<defs>
<clipPath id="clip0_238_1001">
<rect width="85" height="20" fill="white"/>
</clipPath>
</defs>
</svg>
