<svg width="121" height="28" viewBox="0 0 121 28" fill="none" xmlns="http://www.w3.org/2000/svg">
<g clip-path="url(#clip0_238_852)">
<path d="M15.3703 0.0390625L16.8498 0.154158L16.8152 0.594948L15.8667 0.521483L15.8247 1.06023L16.6349 1.1239L16.6003 1.56469L15.7902 1.50102L15.7185 2.40464L15.1875 2.36301L15.3727 0.0390625H15.3703Z" fill="white"/>
<path d="M17.3809 1.49878L17.7168 0.291504L18.2306 0.431088L17.8798 1.68979C17.7563 2.13058 17.8551 2.31914 18.1095 2.39016C18.3639 2.45872 18.5541 2.34853 18.6752 1.90774L19.0259 0.649034L19.5199 0.78372L19.184 1.991C18.974 2.74524 18.5739 2.99012 17.986 2.8285C17.3982 2.66932 17.171 2.25302 17.3809 1.49878Z" fill="white"/>
<path d="M20.5101 1.17285L20.9942 1.42263V2.73276L20.9646 3.29354L20.9769 3.30089C21.0708 3.0707 21.1844 2.76215 21.3128 2.51726L21.6982 1.78751L22.1477 2.02015L21.0584 4.08697L20.5743 3.83719V2.52461L20.604 1.96627L20.5916 1.95893C20.4928 2.19891 20.3866 2.49522 20.2582 2.73766L19.8729 3.47231L19.4233 3.23967L20.5126 1.17285H20.5101Z" fill="white"/>
<path d="M22.19 3.44796C22.6865 2.85044 23.3731 2.8284 23.8597 3.22511C24.124 3.44061 24.2178 3.70509 24.2401 3.92548L23.8078 4.01119C23.7856 3.85446 23.7387 3.71488 23.5831 3.58754C23.3039 3.3598 22.9236 3.41612 22.6247 3.7761C22.3184 4.14588 22.3086 4.50096 22.6519 4.77768C22.7235 4.83645 22.8149 4.88053 22.889 4.88053L23.1459 4.56952L22.8445 4.32464L23.1212 3.9916L23.7881 4.53279L23.0989 5.36295C22.8717 5.38254 22.5728 5.29928 22.3184 5.09358C21.817 4.68707 21.6911 4.05282 22.1925 3.44551L22.19 3.44796Z" fill="white"/>
<path d="M25.1635 4.46387L25.5217 4.9169L24.9338 5.85236C24.8523 5.9748 24.7609 6.09724 24.6745 6.22213L24.6844 6.23438C24.8276 6.18295 24.9709 6.12173 25.1092 6.0752L26.1614 5.72747L26.5195 6.1805L24.6646 7.61552L24.3657 7.2384L25.045 6.7119C25.2253 6.57232 25.5217 6.396 25.7168 6.27846L25.7069 6.26621L25.1487 6.45477L24.2348 6.74373L24.052 6.51354L24.5559 5.70298L24.8795 5.21566L24.8696 5.20342C24.7066 5.36259 24.4621 5.60503 24.2817 5.74461L23.6025 6.27111L23.3086 5.89889L25.1611 4.46387H25.1635Z" fill="white"/>
<path d="M25.9267 7.64028L27.0703 7.10889L27.2951 7.58641L26.1021 8.13985C25.6847 8.33331 25.6032 8.53166 25.7143 8.76675C25.8255 9.00429 26.0354 9.0753 26.4528 8.88184L27.6458 8.32841L27.8632 8.78879L26.7196 9.32019C26.0033 9.65323 25.5562 9.50875 25.2994 8.96266C25.0425 8.41657 25.2129 7.97333 25.9267 7.64273V7.64028Z" fill="white"/>
<path d="M3.03845 18.954C-0.0341624 12.3103 2.83591 4.38587 9.47017 1.20483C10.7471 0.592619 12.0686 0.195907 13.3974 0C11.661 0.0881581 9.91476 0.494665 8.23767 1.25625C1.17858 4.46423 -1.95578 12.805 1.27244 19.8086C4.51794 26.8515 12.9108 29.9493 20.0069 26.7242C22.136 25.7569 23.907 24.3292 25.2531 22.6175C24.0922 23.8296 22.6844 24.8483 21.0567 25.5879C14.2322 28.6881 6.16539 25.7177 3.03598 18.954H3.03845Z" fill="white"/>
<path d="M9.61572 24.6547C17.9617 28.7981 22.6545 20.3912 27.9797 20.0362C23.9364 17.1833 16.1981 26.1289 9.61572 24.6547Z" fill="#2BABE4"/>
<path d="M21.076 16.2457C20.0979 16.6473 19.1001 17.1175 18.1022 17.5975C16.8895 18.1803 15.6743 18.7778 14.4788 19.2749C13.2908 19.7696 12.125 20.1663 11.0036 20.3573C7.8816 20.8863 5.12021 19.8112 3.25293 14.7568C6.66639 34.159 23.5534 15.4082 29.6393 16.7575C27.2904 14.3871 24.2721 14.938 21.076 16.2457Z" fill="white"/>
<path d="M17.7588 14.2301C16.8449 14.4774 15.9211 14.9157 14.9825 15.3908C14.4515 15.6602 13.9155 15.9418 13.3721 16.2063C12.6361 16.5687 11.8877 16.8993 11.127 17.1344C9.94385 17.5017 8.72864 17.629 7.47638 17.2617C6.42419 16.9507 5.34482 16.2895 4.23582 15.119C4.01105 14.8839 3.78629 14.6268 3.56152 14.3476C3.7196 14.6561 3.88015 14.9476 4.04069 15.2218C4.73969 16.412 5.46091 17.2911 6.20436 17.918C7.63693 19.1302 9.13865 19.4093 10.6651 19.1914C11.7025 19.042 12.7522 18.6624 13.7945 18.1923C14.7034 17.7809 15.6099 17.3033 16.504 16.8454C17.697 16.2356 18.8653 15.6651 19.9842 15.3516C20.7005 15.1533 21.397 15.0578 22.0688 15.1263C20.6511 13.9239 19.221 13.8309 17.7612 14.2276L17.7588 14.2301Z" fill="#2BABE4"/>
<path d="M11.7594 12.1338C11.9595 12.1779 12.1249 11.9134 11.9619 11.7885C11.1715 11.1812 9.92917 10.1944 8.57317 9.02871C5.89575 6.72925 7.77785 5.49748 7.77785 5.49748C7.77785 5.49748 5.89822 5.10322 4.78922 6.57987C4.26312 7.28269 3.99142 8.46058 4.70524 9.45235C5.5796 10.6645 10.0749 11.7592 11.7569 12.1338H11.7594Z" fill="white"/>
<path d="M12.3545 11.6297C12.4163 11.8256 12.7299 11.8354 12.7571 11.6297C12.893 10.6477 13.135 9.08538 13.4734 7.33936C14.1427 3.88895 16.1607 4.89297 16.1607 4.89297C16.1607 4.89297 15.5654 3.08083 13.7229 2.86778C12.846 2.76738 11.6802 3.12246 11.1714 4.23178C10.5514 5.58844 11.8408 9.99635 12.3545 11.6273V11.6297Z" fill="white"/>
<path d="M13.0908 11.8893C12.95 12.0387 13.0982 12.313 13.2909 12.2371C14.2171 11.8624 15.7016 11.2894 17.3959 10.7066C20.7427 9.55805 20.8761 11.7889 20.8761 11.7889C20.8761 11.7889 22.1605 10.3735 21.4244 8.68381C21.0737 7.88059 20.1796 7.05778 18.9594 7.17533C17.4651 7.31981 14.2591 10.6331 13.0908 11.8893Z" fill="white"/>
<path d="M7.7655 16.2676C7.93593 16.3191 8.10635 16.3582 8.28172 16.3876C9.68712 15.271 11.2086 13.689 11.9372 12.9029C12.078 12.7536 11.9372 12.5038 11.7372 12.5552C10.3911 12.9029 7.16284 13.8163 4.98682 14.4702C5.9007 15.3958 6.8121 15.9836 7.76797 16.2652L7.7655 16.2676Z" fill="white"/>
<path d="M13.296 15.1903C13.0761 14.3626 12.8514 13.6255 12.6982 13.1381C12.6365 12.9422 12.3599 12.9422 12.2956 13.1381C12.0882 13.7699 11.7547 14.8327 11.4312 16.0082C11.9696 15.8172 12.5599 15.5576 13.2935 15.1927L13.296 15.1903Z" fill="white"/>
<path d="M17.2377 13.5884C15.894 13.1672 14.0613 12.7754 13.2833 12.6016C13.0832 12.5575 12.9424 12.795 13.0808 12.9468C13.4266 13.3264 13.9576 13.8994 14.58 14.5386C14.6418 14.5068 14.706 14.4749 14.7677 14.4431C15.5013 14.0733 16.3065 13.7648 17.2401 13.5884H17.2377Z" fill="white"/>
<path d="M54.3114 15.3724H45.6863V17.1576H49.7766C51.955 17.1576 53.4444 18.7665 53.4444 20.6398C53.4444 22.5132 51.955 24.1441 49.7766 24.1441H38.5729C36.3722 24.1441 34.9273 22.5352 34.9273 20.6398C34.9273 18.7444 36.3722 17.1576 38.5729 17.1576H42.6409V15.3724H34.0381V12.926H54.3114V15.3724ZM53.4889 9.26745V11.5375H34.8606V9.26745H38.3506L37.9282 6.71086H40.9292L41.3294 9.26745H46.9534L47.3535 6.71086H50.3545L49.9099 9.26745H53.4889ZM53.2666 4V6.27007H35.0829V4H53.2666ZM49.0208 19.4717H39.2842C38.4618 19.4717 37.8838 19.9787 37.8838 20.5958C37.8838 21.257 38.4618 21.7859 39.2842 21.7859H49.0208C49.8432 21.7859 50.4212 21.257 50.4212 20.5958C50.4212 19.9787 49.8432 19.4717 49.0208 19.4717Z" fill="white"/>
<path d="M64.8259 24.2986V18.3479H56.2676V15.6591H76.5409V18.3479H67.9825V24.2986H64.8259ZM57.4457 13.389V4.26465H75.3627V13.389H57.4457ZM60.5134 10.7884H72.295V6.88735H60.5134V10.7884Z" fill="white"/>
<path d="M78.4995 23.5933V20.7943H98.7728V23.5933H78.4995ZM93.171 18.8548L94.3047 7.01959H79.5665V4.26465H97.7058L96.3276 18.8548H93.171Z" fill="white"/>
<path d="M100.729 15.5928V13.2346H121.002V15.5928H112.377V17.6866H109.332V15.5928H100.729ZM101.907 12.1987V7.04146H116.734V6.07172H101.907V4H119.824V9.04705H104.997V10.0829H119.935V12.1987H101.907ZM101.907 24.078V16.7829H104.975V18.3477H116.756V16.7829H119.824V24.078H116.756V23.505L101.907 24.078ZM104.975 21.7639L116.756 21.3672V20.5076H104.975V21.7639Z" fill="white"/>
</g>
<defs>
<clipPath id="clip0_238_852">
<rect width="121" height="28" fill="white"/>
</clipPath>
</defs>
</svg>
